<?xml version="1.0" encoding="iso-8859-1"?>
<!-- Generator: Adobe Illustrator 19.0.0, SVG Export Plug-In . SVG Version: 6.00 Build 0)  -->
<svg xmlns="http://www.w3.org/2000/svg" xmlns:xlink="http://www.w3.org/1999/xlink" version="1.1" id="Capa_1" x="0px" y="0px" viewBox="0 0 211.626 211.626" style="enable-background:new 0 0 211.626 211.626;" xml:space="preserve" width="512px" height="512px">
<g>
	<g>
		<path d="M116.806,27.306H40.209c-10.878,0-19.729,8.851-19.729,19.729v161.178c0,1.884,1.529,3.413,3.413,3.413H133.12    c1.884,0,3.413-1.529,3.415-3.413V47.035C136.535,36.157,127.684,27.306,116.806,27.306z M129.706,204.8h-102.4V47.035    c0-7.113,5.789-12.902,12.902-12.902h76.595c7.115,0,12.902,5.789,12.902,12.902V204.8z" fill="#FFFFFF"/>
	</g>
</g>
<g>
	<g>
		<path d="M78.507,37.546c-24.467,0-44.373,19.905-44.373,44.373c0,1.884,1.529,3.413,3.413,3.413h81.92    c1.884,0,3.413-1.529,3.413-3.413C122.88,57.451,102.973,37.546,78.507,37.546z M41.113,78.506    c1.731-19.11,17.838-34.133,37.391-34.133c19.553,0,35.664,15.024,37.393,34.133H41.113z" fill="#FFFFFF"/>
	</g>
</g>
<g>
	<g>
		<path d="M78.507,51.2c-1.884,0-3.413,1.529-3.413,3.413v34.133c0,1.884,1.529,3.413,3.413,3.413c1.884,0,3.413-1.529,3.413-3.413    V54.613C81.92,52.729,80.391,51.2,78.507,51.2z" fill="#FFFFFF"/>
	</g>
</g>
<g>
	<g>
		<path d="M101.4,48.786c-1.331-1.333-3.495-1.333-4.826,0l-6.827,6.827c-1.333,1.333-1.333,3.494,0,4.826    c0.666,0.667,1.539,1,2.413,1s1.748-0.333,2.413-1l6.827-6.827C102.733,52.28,102.733,50.119,101.4,48.786z" fill="#FFFFFF"/>
	</g>
</g>
<g>
	<g>
		<path d="M67.266,55.613l-6.827-6.827c-1.331-1.333-3.495-1.333-4.826,0c-1.333,1.333-1.333,3.494,0,4.826l6.827,6.827    c0.666,0.667,1.539,1,2.413,1c0.874,0,1.748-0.333,2.413-1C68.599,59.107,68.599,56.946,67.266,55.613z" fill="#FFFFFF"/>
	</g>
</g>
<g>
	<g>
		<path d="M55.439,64.954L41.786,61.54c-1.828-0.463-3.68,0.655-4.139,2.483c-0.456,1.83,0.655,3.683,2.485,4.14l13.653,3.413    c0.276,0.07,0.555,0.102,0.829,0.102c1.529,0,2.922-1.034,3.309-2.586C58.38,67.264,57.269,65.411,55.439,64.954z" fill="#FFFFFF"/>
	</g>
</g>
<g>
	<g>
		<path d="M119.366,64.023c-0.457-1.828-2.316-2.944-4.139-2.483l-13.653,3.413c-1.83,0.457-2.942,2.311-2.485,4.14    c0.389,1.551,1.78,2.586,3.309,2.586c0.273,0,0.551-0.032,0.829-0.102l13.653-3.413C118.71,67.706,119.823,65.853,119.366,64.023z    " fill="#FFFFFF"/>
	</g>
</g>
<g>
	<g>
		<path d="M180.908,64.853c-1.884,0-3.413,1.529-3.413,3.413v102.047c0,3.958-3.222,7.18-7.182,7.18h-9.532    c-3.959,0-7.182-3.222-7.182-7.18V86.027c0-7.723-6.284-14.007-14.008-14.007h-6.472c-1.884,0-3.413,1.529-3.413,3.413    s1.529,3.413,3.413,3.413h6.47c3.959,0,7.182,3.222,7.182,7.18v84.285c0,7.723,6.284,14.007,14.008,14.007h9.532    c7.724,0,14.008-6.284,14.01-14.007V68.266C184.322,66.382,182.792,64.853,180.908,64.853z" fill="#FFFFFF"/>
	</g>
</g>
<g>
	<g>
		<path d="M81.316,117.526c-0.638-0.923-1.686-1.473-2.809-1.473c-1.123,0-2.171,0.55-2.809,1.473    c-2.157,3.125-21.084,30.874-21.084,42.9c0,13.175,10.718,23.893,23.893,23.893s23.893-10.718,23.893-23.893    C102.4,148.399,83.473,120.651,81.316,117.526z M78.507,177.493c-9.411,0-17.067-7.656-17.067-17.067    c0-6.6,9.545-23.357,17.067-34.84c7.523,11.479,17.067,28.235,17.067,34.84C95.573,169.837,87.917,177.493,78.507,177.493z" fill="#FFFFFF"/>
	</g>
</g>
<g>
	<g>
		<path d="M187.733,27.306H174.08c-1.884,0-3.413,1.529-3.413,3.413v37.547c0,1.884,1.529,3.413,3.413,3.413h13.653    c1.884,0,3.413-1.529,3.413-3.413V30.72C191.146,28.835,189.617,27.306,187.733,27.306z M184.32,64.853h-6.827v-30.72h6.827    V64.853z" fill="#FFFFFF"/>
	</g>
</g>
<g>
	<g>
		<path d="M190.145,1c-1.331-1.333-3.495-1.333-4.826,0l-6.827,6.827c-0.616,0.616-0.973,1.444-0.998,2.314l-0.568,19.912    c-0.055,1.886,1.43,3.458,3.314,3.511c0.032,0.002,0.067,0.002,0.099,0.002c1.841,0,3.359-1.464,3.408-3.314l0.531-18.557    l5.868-5.867C191.478,4.493,191.478,2.333,190.145,1z" fill="#FFFFFF"/>
	</g>
</g>
<g>
</g>
<g>
</g>
<g>
</g>
<g>
</g>
<g>
</g>
<g>
</g>
<g>
</g>
<g>
</g>
<g>
</g>
<g>
</g>
<g>
</g>
<g>
</g>
<g>
</g>
<g>
</g>
<g>
</g>
</svg>
