<?xml version="1.0" encoding="iso-8859-1"?>
<!-- Generator: Adobe Illustrator 19.0.0, SVG Export Plug-In . SVG Version: 6.00 Build 0)  -->
<svg xmlns="http://www.w3.org/2000/svg" xmlns:xlink="http://www.w3.org/1999/xlink" version="1.1" id="Layer_1" x="0px" y="0px" viewBox="0 0 512 512" style="enable-background:new 0 0 512 512;" xml:space="preserve" width="512px" height="512px">
<g>
	<g>
		<path d="M503.551,444.304H447.87v-61.589h25.721c8.332,0,16.358-3.507,22.017-9.623c5.66-6.116,8.536-14.387,7.892-22.696    l-10.201-131.52c-1.203-15.521-14.341-27.679-29.908-27.679h-47.939c-15.567,0-28.705,12.158-29.908,27.679l-10.201,131.52    c-0.644,8.308,2.232,16.58,7.892,22.696c5.659,6.115,13.684,9.623,22.016,9.623h25.721v61.589h-77.165v-19.152h3.657    c4.666,0,8.449-3.783,8.449-8.449c0-4.666-3.783-8.449-8.449-8.449h-3.657v-39.993c0-4.666-3.783-8.449-8.449-8.449H244.238    c-4.666,0-8.449,3.783-8.449,8.449v39.993h-3.657c-4.666,0-8.449,3.783-8.449,8.449c0,4.666,3.783,8.449,8.449,8.449h3.657v19.152    h-70.579v-40.279h16.443c6.708,0,13.167-2.823,17.723-7.746s6.871-11.581,6.353-18.268l-7.431-95.81    c-0.969-12.494-11.544-22.28-24.075-22.28h-23.596l-3.181-41.048c-1.216-15.517-14.352-27.673-29.907-27.673H69.591    c-15.555,0-28.691,12.156-29.908,27.68L29.488,350.396c-0.643,8.312,2.234,16.588,7.894,22.701    c5.658,6.113,13.681,9.619,22.013,9.619h25.72v61.589H8.449c-4.666,0-8.449,3.783-8.449,8.449s3.783,8.448,8.449,8.448h495.102    c4.666,0,8.449-3.783,8.449-8.449C512,448.087,508.217,444.304,503.551,444.304z M93.566,279.824    c-4.666,0-8.449,3.783-8.449,8.449v22.784l-10.924-10.924c-3.3-3.3-8.65-3.3-11.948,0c-3.3,3.3-3.3,8.65,0,11.948l22.873,22.873    v30.861H59.396v0.001c-3.692,0-7.106-1.492-9.612-4.199c-2.509-2.709-3.732-6.232-3.447-9.918l10.194-131.508    c0.532-6.782,6.268-12.095,13.06-12.095h47.947c6.792,0,12.53,5.313,13.06,12.087l3.133,40.419    c-8.981,2.158-16.126,9.381-18.047,18.546c-0.998,0.412-13.67,12.757-13.67,12.757v-3.632    C102.015,283.607,98.232,279.824,93.566,279.824z M102.014,335.843v-4.383c0-0.001,0-0.003,0-0.006v-15.649l11.494-11.494    l-1.684,21.722L102.014,335.843z M109.814,351.939l-1.076,13.877h-6.724v-6.077L109.814,351.939z M148.311,444.304h-46.297    v-61.589h5.882c0.6,5.027,2.768,9.802,6.249,13.564c4.556,4.923,11.016,7.746,17.723,7.746h16.443V444.304z M179.758,344.162    c-2.316-4.052-7.478-5.459-11.528-3.144l-3.023,1.727v-9.814c0-4.666-3.783-8.449-8.449-8.449c-4.666,0-8.449,3.783-8.449,8.449    v9.75l-3.721-2.181c-4.025-2.359-9.202-1.009-11.562,3.016c-2.36,4.026-1.009,9.202,3.016,11.562l12.267,7.191v24.855h-16.443    c-2.042,0-3.933-0.826-5.321-2.325c-1.388-1.501-2.065-3.447-1.907-5.484l7.431-95.811c0.291-3.75,3.465-6.688,7.228-6.688h34.924    c3.764,0.001,6.937,2.938,7.228,6.69l7.431,95.811c0.158,2.037-0.519,3.985-1.907,5.484c-1.388,1.499-3.277,2.325-5.321,2.325    h-16.443v-24.917l11.406-6.518C180.665,353.375,182.074,348.215,179.758,344.162z M336.908,444.304h-84.22v-19.152h84.22V444.304z     M336.908,408.254h-84.22v-5.231h84.22V408.254z M336.908,386.125h-84.22v-9.415h84.22V386.125z M439.422,279.825    c-4.666,0-8.449,3.783-8.449,8.449v3.632l-10.924-10.924c-3.3-3.3-8.65-3.3-11.948,0c-3.3,3.3-3.3,8.65,0,11.948l22.873,22.873    v20.038l-10.924-10.924c-3.3-3.3-8.65-3.3-11.948,0c-3.3,3.3-3.3,8.65,0,11.948l22.873,22.873v6.077h-25.722v0.001    c-3.692,0-7.106-1.493-9.614-4.202c-2.508-2.711-3.732-6.23-3.446-9.91l10.201-131.52c0.526-6.777,6.263-12.087,13.06-12.087    h47.939c6.798,0,12.534,5.31,13.06,12.087l10.201,131.52c0.285,3.682-0.938,7.201-3.446,9.91    c-2.508,2.709-5.922,4.202-9.614,4.202h-25.721v-9.574c0-0.001,0-0.003,0-0.006v-21.282l22.873-22.873c3.3-3.3,3.3-8.65,0-11.948    c-3.3-3.3-8.65-3.3-11.948,0l-10.924,10.924v-22.784C447.871,283.608,444.088,279.825,439.422,279.825z" fill="#FFFFFF"/>
	</g>
</g>
<g>
	<g>
		<path d="M503.551,476.409H8.449c-4.666,0-8.449,3.783-8.449,8.449c0,4.666,3.783,8.449,8.449,8.449h495.102    c4.666,0,8.449-3.783,8.449-8.449C512,480.192,508.217,476.409,503.551,476.409z" fill="#FFFFFF"/>
	</g>
</g>
<g>
	<g>
		<path d="M288.238,110.789h-41.135c1.017-2.767,1.573-5.756,1.573-8.871c0-12.792-9.371-23.433-21.608-25.429    c-3.624-32.467-31.226-57.797-64.644-57.797c-35.868,0-65.048,29.186-65.048,65.059s29.181,65.06,65.049,65.06    c1.043,0,2.089-0.034,3.133-0.084c4.352,8.089,12.897,13.601,22.708,13.601h99.972c14.209,0,25.77-11.56,25.77-25.769    C314.008,122.35,302.447,110.789,288.238,110.789z M162.922,131.904c-0.166,0.001-0.331,0.01-0.497,0.01    c-26.55,0-48.149-21.605-48.149-48.161c0-26.555,21.6-48.161,48.149-48.161c23.969,0,43.898,17.603,47.555,40.558h-46.784    c-14.209,0-25.77,11.56-25.77,25.77c0,14.209,11.561,25.769,25.77,25.769h0.874C163.572,129.044,163.188,130.454,162.922,131.904z     M288.238,145.431h-99.972c-4.892,0-8.871-3.979-8.871-8.871c0-4.892,3.979-8.872,8.871-8.872c4.666,0,8.449-3.783,8.449-8.449    s-3.783-8.449-8.449-8.449h-25.071c-4.892,0-8.872-3.979-8.872-8.871c0-4.892,3.98-8.872,8.872-8.872h59.71    c4.892,0,8.872,3.98,8.872,8.872c0,4.892-3.98,8.871-8.872,8.871c-4.666,0-8.449,3.783-8.449,8.449s3.783,8.449,8.449,8.449    h65.332c4.892,0,8.872,3.98,8.872,8.872S293.129,145.431,288.238,145.431z" fill="#FFFFFF"/>
	</g>
</g>
<g>
	<g>
		<path d="M440.495,67.649c-12.303,0-23.289,5.747-30.416,14.696c-7.127-8.949-18.113-14.696-30.416-14.696    c-4.666,0-8.449,3.783-8.449,8.449s3.783,8.449,8.449,8.449c12.112,0,21.967,9.854,21.967,21.967c0,4.666,3.783,8.449,8.449,8.449    c4.666,0,8.449-3.783,8.449-8.449c0-12.113,9.854-21.967,21.967-21.967c4.666,0,8.449-3.783,8.449-8.449    S445.161,67.649,440.495,67.649z" fill="#FFFFFF"/>
	</g>
</g>
<g>
</g>
<g>
</g>
<g>
</g>
<g>
</g>
<g>
</g>
<g>
</g>
<g>
</g>
<g>
</g>
<g>
</g>
<g>
</g>
<g>
</g>
<g>
</g>
<g>
</g>
<g>
</g>
<g>
</g>
</svg>
