<?xml version="1.0" encoding="iso-8859-1"?>
<!-- Generator: Adobe Illustrator 19.0.0, SVG Export Plug-In . SVG Version: 6.00 Build 0)  -->
<svg xmlns="http://www.w3.org/2000/svg" xmlns:xlink="http://www.w3.org/1999/xlink" version="1.1" id="Layer_1" x="0px" y="0px" viewBox="0 0 508 508" style="enable-background:new 0 0 508 508;" xml:space="preserve" width="512px" height="512px">
<g>
	<g>
		<path d="M493.949,0h-479.8c-7.8,0-14.1,6.3-14.1,14.1v124.2c0,7.8,6.3,14.1,14.1,14.1h12.6v341.5c0,7.8,6.3,14.1,14.1,14.1h426.3    c7.8,0,14.1-6.3,14.1-14.1V152.4h12.6c7.8,0,14.1-6.3,14.1-14.1V14.1C508.049,6.3,501.749,0,493.949,0z M289.949,479.8h-71.7    v-99.2h71.7V479.8z M453.049,479.8h-134.9V366.5c0-7.8-6.3-14.1-14.1-14.1h-100c-7.8,0-14.1,6.3-14.1,14.1v113.3h-134.9V152.4h398    V479.8z M479.849,124.2L479.849,124.2h-451.6v-96h451.6V124.2z" fill="#FFFFFF"/>
	</g>
</g>
<g>
	<g>
		<path d="M125.349,47h-25.7v59.2h13.2V89.6h0.1h12.4c11.8,0,21.3-9.6,21.3-21.3C146.649,56.5,137.049,47,125.349,47z M123.249,78.1    h-10.3V58.3h10.3c5.5,0,9.9,4.5,9.9,9.9C133.149,73.6,128.649,78.1,123.249,78.1z" fill="#FFFFFF"/>
	</g>
</g>
<g>
	<g>
		<polygon points="240.149,94.4 240.149,47 226.949,47 226.949,106.1 265.349,106.1 265.349,94.4   " fill="#FFFFFF"/>
	</g>
</g>
<g>
	<g>
		<rect x="275.049" y="47" width="13.2" height="59.2" fill="#FFFFFF"/>
	</g>
</g>
<g>
	<g>
		<polygon points="377.949,94.4 377.949,82.2 404.549,82.2 404.549,70.9 377.949,70.9 377.949,58.7 407.449,58.7 407.449,47     364.749,47 364.749,106.1 408.349,106.1 408.349,94.4   " fill="#FFFFFF"/>
	</g>
</g>
<g>
	<g>
		<path d="M108.149,190c-7.8,0-14.1,6.3-14.1,14.1v21.7c0,7.8,6.3,14.1,14.1,14.1c7.8,0,14.1-6.3,14.1-14.1v-21.7    C122.249,196.3,115.949,190,108.149,190z" fill="#FFFFFF"/>
	</g>
</g>
<g>
	<g>
		<path d="M181.049,190c-7.8,0-14.1,6.3-14.1,14.1v21.7c0,7.8,6.3,14.1,14.1,14.1s14.1-6.3,14.1-14.1v-21.7    C195.149,196.3,188.849,190,181.049,190z" fill="#FFFFFF"/>
	</g>
</g>
<g>
	<g>
		<path d="M254.049,190c-7.8,0-14.1,6.3-14.1,14.1v21.7c0,7.8,6.3,14.1,14.1,14.1s14.1-6.3,14.1-14.1v-21.7    C268.149,196.3,261.849,190,254.049,190z" fill="#FFFFFF"/>
	</g>
</g>
<g>
	<g>
		<path d="M327.049,190c-7.8,0-14.1,6.3-14.1,14.1v21.7c0,7.8,6.3,14.1,14.1,14.1s14.1-6.3,14.1-14.1v-21.7    C341.149,196.3,334.849,190,327.049,190z" fill="#FFFFFF"/>
	</g>
</g>
<g>
	<g>
		<path d="M399.949,190c-7.8,0-14.1,6.3-14.1,14.1v21.7c0,7.8,6.3,14.1,14.1,14.1s14.1-6.3,14.1-14.1v-21.7    C414.049,196.3,407.749,190,399.949,190z" fill="#FFFFFF"/>
	</g>
</g>
<g>
	<g>
		<path d="M108.149,284.8c-7.8,0-14.1,6.3-14.1,14.1v21.7c0,7.8,6.3,14.1,14.1,14.1c7.8,0,14.1-6.3,14.1-14.1v-21.7    C122.249,291.1,115.949,284.8,108.149,284.8z" fill="#FFFFFF"/>
	</g>
</g>
<g>
	<g>
		<path d="M181.049,284.8c-7.8,0-14.1,6.3-14.1,14.1v21.7c0,7.8,6.3,14.1,14.1,14.1s14.1-6.3,14.1-14.1v-21.7    C195.149,291.1,188.849,284.8,181.049,284.8z" fill="#FFFFFF"/>
	</g>
</g>
<g>
	<g>
		<path d="M254.049,284.8c-7.8,0-14.1,6.3-14.1,14.1v21.7c0,7.8,6.3,14.1,14.1,14.1s14.1-6.3,14.1-14.1v-21.7    C268.149,291.1,261.849,284.8,254.049,284.8z" fill="#FFFFFF"/>
	</g>
</g>
<g>
	<g>
		<path d="M327.049,284.8c-7.8,0-14.1,6.3-14.1,14.1v21.7c0,7.8,6.3,14.1,14.1,14.1s14.1-6.3,14.1-14.1v-21.7    C341.149,291.1,334.849,284.8,327.049,284.8z" fill="#FFFFFF"/>
	</g>
</g>
<g>
	<g>
		<path d="M399.949,284.8c-7.8,0-14.1,6.3-14.1,14.1v21.7c0,7.8,6.3,14.1,14.1,14.1s14.1-6.3,14.1-14.1v-21.7    C414.049,291.1,407.749,284.8,399.949,284.8z" fill="#FFFFFF"/>
	</g>
</g>
<g>
	<g>
		<path d="M108.149,379.7c-7.8,0-14.1,6.3-14.1,14.1v21.7c0,7.8,6.3,14.1,14.1,14.1c7.8,0,14.1-6.3,14.1-14.1v-21.7    C122.249,386,115.949,379.7,108.149,379.7z" fill="#FFFFFF"/>
	</g>
</g>
<g>
	<g>
		<path d="M399.949,379.7c-7.8,0-14.1,6.3-14.1,14.1v21.7c0,7.8,6.3,14.1,14.1,14.1s14.1-6.3,14.1-14.1v-21.7    C414.049,386,407.749,379.7,399.949,379.7z" fill="#FFFFFF"/>
	</g>
</g>
<g>
	<g>
		<path d="M184.649,45.5c-17.1,0-31,13.7-31,30.6c0,16.9,13.9,30.6,31,30.6c17.1,0,31.1-13.7,31.1-30.6    C215.749,59.2,201.749,45.5,184.649,45.5z M184.649,95.2c-9.7,0-17.6-8.5-17.6-19c0.1-10.6,7.9-19.1,17.6-19.1    c9.7,0,17.6,8.5,17.6,19.1C202.249,86.7,194.349,95.2,184.649,95.2z" fill="#FFFFFF"/>
	</g>
</g>
<g>
	<g>
		<path d="M331.149,94.5c-10.2,0-18.4-8.1-18.4-18.1s8.2-18.1,18.4-18.1c6.3,0,11.9,3.2,15.3,8l8-9.1c-5.7-6.9-14.3-11.5-24.1-11.5    c-17.1,0-31,13.7-31,30.6c-0.1,16.7,13.8,30.4,31,30.4c9.7,0,18.3-4.5,24-11.3l-8.3-8.5C342.749,91.5,337.249,94.5,331.149,94.5z" fill="#FFFFFF"/>
	</g>
</g>
<g>
</g>
<g>
</g>
<g>
</g>
<g>
</g>
<g>
</g>
<g>
</g>
<g>
</g>
<g>
</g>
<g>
</g>
<g>
</g>
<g>
</g>
<g>
</g>
<g>
</g>
<g>
</g>
<g>
</g>
</svg>
