<?xml version="1.0" encoding="iso-8859-1"?>
<!-- Generator: Adobe Illustrator 19.0.0, SVG Export Plug-In . SVG Version: 6.00 Build 0)  -->
<svg xmlns="http://www.w3.org/2000/svg" xmlns:xlink="http://www.w3.org/1999/xlink" version="1.1" id="Layer_1" x="0px" y="0px" viewBox="0 0 512 512" style="enable-background:new 0 0 512 512;" xml:space="preserve" width="512px" height="512px">
<g transform="translate(0 -1)">
	<g>
		<g>
			<path d="M256,52.2c-32.992,0-59.733,26.741-59.733,59.733s26.741,59.733,59.733,59.733s59.733-26.741,59.733-59.733     S288.992,52.2,256,52.2z M256,154.6c-23.567,0-42.667-19.1-42.667-42.667s19.1-42.667,42.667-42.667s42.667,19.1,42.667,42.667     S279.567,154.6,256,154.6z" fill="#FFFFFF"/>
			<path d="M256,197.267c-32.992,0-59.733,26.741-59.733,59.733c0,32.992,26.741,59.733,59.733,59.733s59.733-26.741,59.733-59.733     C315.733,224.008,288.992,197.267,256,197.267z M256,299.667c-23.567,0-42.667-19.1-42.667-42.667     c0-23.567,19.1-42.667,42.667-42.667s42.667,19.1,42.667,42.667C298.667,280.567,279.567,299.667,256,299.667z" fill="#FFFFFF"/>
			<path d="M256,342.333c-32.992,0-59.733,26.741-59.733,59.733S223.008,461.8,256,461.8s59.733-26.741,59.733-59.733     S288.992,342.333,256,342.333z M256,444.733c-23.567,0-42.667-19.1-42.667-42.667S232.433,359.4,256,359.4     s42.667,19.1,42.667,42.667S279.567,444.733,256,444.733z" fill="#FFFFFF"/>
			<path d="M401.067,120.467h8.533c33.009,0,59.733-26.724,59.733-59.733V52.2h-102.4V28.733C366.933,13.414,354.52,1,339.2,1H172.8     c-15.32,0-27.733,12.414-27.733,27.733V52.2h-102.4v8.533c0,33.009,26.724,59.733,59.733,59.733h8.533     c18.873,0,34.133,15.26,34.133,34.133v42.667h-102.4v8.533c0,33.009,26.724,59.733,59.733,59.733h8.533     c18.873,0,34.133,15.26,34.133,34.133v42.667h-102.4v8.533c0,33.009,26.724,59.733,59.733,59.733h8.533     c18.873,0,34.133,15.26,34.133,34.133v40.533c0,15.32,12.414,27.733,27.733,27.733h166.4c15.32,0,27.733-12.414,27.733-27.733     v-40.533c0-18.873,15.26-34.133,34.133-34.133h8.533c33.009,0,59.733-26.724,59.733-59.733v-8.533h-102.4v-42.667     c0-18.873,15.26-34.133,34.133-34.133h8.533c33.009,0,59.733-26.724,59.733-59.733v-8.533h-102.4V154.6     C366.933,135.727,382.193,120.467,401.067,120.467z M451.415,69.267C447.467,88.754,430.261,103.4,409.6,103.4h-8.533     c-13.119,0-25.078,4.922-34.133,13.022V69.267H451.415z M110.933,103.4H102.4c-20.661,0-37.867-14.646-41.815-34.133h84.482     v47.155C136.012,108.322,124.053,103.4,110.933,103.4z M110.933,248.467H102.4c-20.661,0-37.867-14.646-41.815-34.133h84.482     v47.155C136.012,253.389,124.053,248.467,110.933,248.467z M110.933,393.533H102.4c-20.661,0-37.867-14.646-41.815-34.133h84.482     v47.155C136.012,398.455,124.053,393.533,110.933,393.533z M451.415,359.4c-3.948,19.487-21.154,34.133-41.815,34.133h-8.533     c-13.119,0-25.078,4.922-34.133,13.022V359.4H451.415z M451.415,214.333c-3.948,19.487-21.154,34.133-41.815,34.133h-8.533     c-13.119,0-25.078,4.922-34.133,13.022v-47.155H451.415z M349.867,197.267v102.4v42.667v102.4v40.533     c0,5.894-4.773,10.667-10.667,10.667H172.8c-5.894,0-10.667-4.773-10.667-10.667v-40.533v-102.4v-42.667v-102.4V154.6V52.2     V28.733c0-5.894,4.773-10.667,10.667-10.667h166.4c5.894,0,10.667,4.773,10.667,10.667V52.2v102.4V197.267z" fill="#FFFFFF"/>
		</g>
	</g>
</g>
<g>
</g>
<g>
</g>
<g>
</g>
<g>
</g>
<g>
</g>
<g>
</g>
<g>
</g>
<g>
</g>
<g>
</g>
<g>
</g>
<g>
</g>
<g>
</g>
<g>
</g>
<g>
</g>
<g>
</g>
</svg>
