<?xml version="1.0" encoding="iso-8859-1"?>
<!-- Generator: Adobe Illustrator 18.0.0, SVG Export Plug-In . SVG Version: 6.00 Build 0)  -->
<!DOCTYPE svg PUBLIC "-//W3C//DTD SVG 1.1//EN" "http://www.w3.org/Graphics/SVG/1.1/DTD/svg11.dtd">
<svg xmlns="http://www.w3.org/2000/svg" xmlns:xlink="http://www.w3.org/1999/xlink" version="1.1" id="Capa_1" x="0px" y="0px" viewBox="0 0 296.312 296.312" style="enable-background:new 0 0 296.312 296.312;" xml:space="preserve" width="512px" height="512px">
<g>
	<path d="M231.538,73.637c13.162,0,23.831-10.662,23.831-23.831c0-13.161-10.669-23.823-23.831-23.823   c-13.165,0-23.832,10.662-23.832,23.823C207.706,62.975,218.373,73.637,231.538,73.637z" fill="#FFFFFF"/>
	<path d="M295.389,158.763l-33.982-74.447c-1.803-3.949-5.81-5.719-9.9-5.931c-1.561-0.081-38.506-0.075-39.941-0.001   c-4.09,0.21-8.099,1.982-9.901,5.932l-33.983,74.447c-2.337,5.121-0.081,11.166,5.039,13.504c5.128,2.34,11.169,0.075,13.504-5.039   l16.424-35.98c0,2.938-0.03,46.793-0.03,126.857c0,6.755,5.475,12.23,12.23,12.23s12.23-5.476,12.23-12.23v-72.879h8.917v72.879   c0,6.755,5.476,12.23,12.23,12.23c6.755,0,12.23-5.476,12.23-12.23c0-34.617-0.031-120.116-0.031-126.855l16.422,35.977   c2.336,5.117,8.378,7.377,13.504,5.039C295.47,169.93,297.726,163.884,295.389,158.763z" fill="#FFFFFF"/>
	<path d="M64.779,73.635c13.16,0,23.831-10.669,23.831-23.829c0-13.163-10.671-23.831-23.831-23.831   c-13.167,0-23.832,10.668-23.832,23.831C40.947,62.966,51.612,73.635,64.779,73.635z" fill="#FFFFFF"/>
	<path d="M94.648,84.308c-1.686-3.691-5.301-5.882-9.106-5.947H44.012c-3.806,0.064-7.422,2.255-9.107,5.947L0.923,158.756   c-2.337,5.121-0.081,11.167,5.039,13.504c5.128,2.34,11.169,0.075,13.504-5.039l10.607-23.239l-7.249,34.127   c-0.792,3.729,0.142,7.617,2.541,10.58c2.4,2.963,6.009,4.684,9.821,4.684h0.674v64.733c0,6.755,5.476,12.23,12.231,12.23   s12.23-5.476,12.23-12.23v-64.733h8.915v64.733c0,6.755,5.476,12.23,12.23,12.23c6.755,0,12.23-5.476,12.23-12.23v-64.733h0.671   c3.813,0,7.421-1.721,9.821-4.684c2.399-2.963,3.333-6.852,2.541-10.58l-7.249-34.125l10.607,23.237   c2.336,5.117,8.378,7.378,13.504,5.039c5.12-2.337,7.376-8.383,5.039-13.504L94.648,84.308z" fill="#FFFFFF"/>
	<path d="M148.825,35.792c-4.143,0-7.5,3.357-7.5,7.5v208.75c0,4.143,3.357,7.5,7.5,7.5c4.143,0,7.5-3.357,7.5-7.5V43.292   C156.325,39.149,152.967,35.792,148.825,35.792z" fill="#FFFFFF"/>
</g>
<g>
</g>
<g>
</g>
<g>
</g>
<g>
</g>
<g>
</g>
<g>
</g>
<g>
</g>
<g>
</g>
<g>
</g>
<g>
</g>
<g>
</g>
<g>
</g>
<g>
</g>
<g>
</g>
<g>
</g>
</svg>
